<svg xmlns="http://www.w3.org/2000/svg" width="256" height="256" viewBox="0 0 100 100"><rect width="100" height="100" rx="20" fill="#a3c6ee"></rect><path d="M5.02 44.92L5.02 44.92Q5.28 44.92 5.65 44.95Q6.01 44.98 6.38 45.03Q6.75 45.08 7.05 45.13Q7.34 45.18 7.45 45.23L7.45 45.23L7.34 47.01L7.20 47.01Q7.20 46.30 6.69 45.88Q6.18 45.46 5.37 45.46L5.37 45.46Q4.56 45.46 4.07 45.88Q3.59 46.30 3.58 46.90L3.58 46.90Q3.55 47.25 3.78 47.58Q4.01 47.91 4.40 48.19L4.40 48.19L7.10 50.19Q7.68 50.57 7.94 51.11Q8.21 51.64 8.18 52.32L8.18 52.32Q8.14 53.60 7.25 54.36Q6.36 55.12 4.84 55.12L4.84 55.12Q4.32 55.12 3.78 55.03Q3.24 54.94 2.79 54.75Q2.34 54.56 2.08 54.29L2.08 54.29Q1.99 54.01 2.01 53.61Q2.02 53.21 2.12 52.79Q2.22 52.36 2.36 52.06L2.36 52.06L2.48 52.06Q2.43 52.78 2.72 53.36Q3.02 53.94 3.58 54.27Q4.15 54.60 4.92 54.59L4.92 54.59Q5.79 54.56 6.31 54.09Q6.84 53.63 6.84 52.91L6.84 52.91Q6.84 52.48 6.61 52.14Q6.39 51.80 5.91 51.52L5.91 51.52L3.38 49.60Q2.74 49.18 2.46 48.59Q2.19 47.99 2.23 47.35L2.23 47.35Q2.27 46.67 2.61 46.12Q2.95 45.57 3.55 45.25Q4.16 44.92 5.02 44.92ZM6.00 45.06L7.47 45.06L7.45 45.36L6.00 45.36L6.00 45.06ZM10.58 46.56L10.42 44.91L19.09 53.48L19.24 55.12L10.58 46.56ZM10.44 53.93L10.48 53.93L10.48 54.92L9.32 54.92L9.32 54.78Q9.32 54.78 9.44 54.78Q9.57 54.78 9.58 54.78L9.58 54.78Q9.93 54.78 10.18 54.53Q10.44 54.28 10.44 53.93L10.44 53.93ZM11.95 53.93L11.99 53.93Q11.99 54.28 12.24 54.53Q12.49 54.78 12.84 54.78L12.84 54.78Q12.86 54.78 12.98 54.78Q13.11 54.78 13.11 54.78L13.11 54.78L13.11 54.92L11.95 54.92L11.95 53.93ZM10.28 44.91L10.42 44.91L11.98 46.60L11.99 54.92L10.44 54.92L10.44 46.66Q10.44 45.91 10.36 45.41Q10.28 44.91 10.28 44.91L10.28 44.91ZM17.69 45.12L19.21 45.12L19.21 53.33Q19.21 53.83 19.26 54.23Q19.30 54.64 19.33 54.88Q19.37 55.12 19.37 55.12L19.37 55.12L19.24 55.12L17.69 53.37L17.69 45.12ZM19.17 45.12L20.33 45.12L20.33 45.26Q20.33 45.26 20.21 45.26Q20.08 45.26 20.08 45.26L20.08 45.26Q19.73 45.26 19.48 45.51Q19.23 45.75 19.21 46.11L19.21 46.11L19.17 46.11L19.17 45.12ZM16.55 45.26L16.55 45.12L17.72 45.12L17.72 46.11L17.69 46.11Q17.67 45.75 17.43 45.51Q17.18 45.26 16.82 45.26L16.82 45.26Q16.82 45.26 16.69 45.26Q16.57 45.26 16.55 45.26L16.55 45.26ZM26.70 44.92L26.70 44.92Q28.31 44.92 29.52 45.55Q30.74 46.17 31.39 47.32Q32.05 48.47 32.05 50.02L32.05 50.02Q32.05 51.58 31.39 52.72Q30.74 53.87 29.52 54.49Q28.31 55.12 26.70 55.12L26.70 55.12Q25.08 55.12 23.88 54.49Q22.67 53.87 22.01 52.72Q21.36 51.58 21.36 50.02L21.36 50.02Q21.36 48.47 22.01 47.32Q22.67 46.17 23.88 45.55Q25.08 44.92 26.70 44.92ZM26.70 54.59L26.70 54.59Q27.75 54.59 28.53 54.02Q29.31 53.46 29.73 52.44Q30.16 51.42 30.16 50.02L30.16 50.02Q30.16 48.62 29.73 47.60Q29.31 46.58 28.53 46.02Q27.75 45.46 26.70 45.46L26.70 45.46Q25.65 45.46 24.88 46.02Q24.10 46.58 23.67 47.60Q23.25 48.62 23.25 50.02L23.25 50.02Q23.25 51.42 23.67 52.44Q24.10 53.46 24.88 54.02Q25.65 54.59 26.70 54.59ZM36.59 55.14L32.98 45.20L34.87 45.20L37.23 52.20L36.59 55.14ZM39.60 44.90L39.72 44.90L39.93 46.20L37.05 53.59Q37.05 53.59 36.97 53.83Q36.88 54.07 36.80 54.42Q36.73 54.78 36.71 55.14L36.71 55.14L36.59 55.14L36.25 53.62L39.60 44.90ZM38.93 47.28L39.72 44.91L42.76 52.19L42.22 55.14L38.93 47.28ZM44.33 45.20L45.24 45.20L42.61 53.59Q42.61 53.59 42.54 53.84Q42.47 54.09 42.40 54.45Q42.34 54.81 42.34 55.14L42.34 55.14L42.22 55.14L41.89 53.76L44.33 45.20ZM44.95 46.13L44.06 46.13Q44.18 45.71 43.99 45.48Q43.81 45.26 43.53 45.26L43.53 45.26L43.41 45.26L43.41 45.12L46.29 45.12L46.29 45.26Q46.29 45.26 46.23 45.26Q46.18 45.26 46.18 45.26L46.18 45.26Q45.86 45.26 45.48 45.46Q45.10 45.67 44.95 46.13L44.95 46.13ZM35.20 46.13L35.20 46.13L33.31 46.13Q33.13 45.67 32.77 45.46Q32.40 45.26 32.08 45.26L32.08 45.26Q32.08 45.26 32.02 45.26Q31.97 45.26 31.97 45.26L31.97 45.26L31.97 45.12L35.85 45.12L35.85 45.26L35.72 45.26Q35.45 45.26 35.25 45.48Q35.05 45.71 35.20 46.13ZM49.97 45.16L51.68 45.16L51.68 54.92L49.97 54.92L49.97 45.16ZM46.49 45.11L55.15 45.11L55.15 45.64L46.49 45.64L46.49 45.11ZM53.79 45.60L55.15 45.60L55.15 47.07L55.01 47.05L55.01 46.87Q55.01 46.33 54.68 45.99Q54.34 45.65 53.79 45.64L53.79 45.64L53.79 45.60ZM55.15 44.85L55.15 44.85L55.15 45.26L53.44 45.11Q53.75 45.11 54.09 45.06Q54.44 45.02 54.73 44.97Q55.03 44.91 55.15 44.85ZM49.97 53.90L50.01 53.90L50.01 54.92L48.89 54.92L48.89 54.78Q48.89 54.78 48.98 54.78Q49.08 54.78 49.08 54.78L49.08 54.78Q49.44 54.78 49.70 54.52Q49.96 54.26 49.97 53.90L49.97 53.90ZM51.64 54.92L51.64 53.90L51.68 53.90Q51.69 54.26 51.95 54.52Q52.21 54.78 52.58 54.78L52.58 54.78Q52.58 54.78 52.67 54.78Q52.76 54.78 52.76 54.78L52.76 54.78L52.76 54.92L51.64 54.92ZM46.49 45.60L47.84 45.60L47.84 45.64Q47.30 45.65 46.96 45.99Q46.63 46.33 46.63 46.87L46.63 46.87L46.63 47.05L46.49 47.07L46.49 45.60ZM46.49 45.26L46.49 44.85Q46.63 44.91 46.91 44.97Q47.20 45.02 47.55 45.06Q47.90 45.11 48.19 45.11L48.19 45.11L46.49 45.26ZM58.67 45.12L58.67 45.12L60.53 45.12Q61.16 45.12 61.72 45.27Q62.29 45.43 62.73 45.75Q63.16 46.07 63.40 46.57Q63.65 47.07 63.65 47.75L63.65 47.75Q63.65 48.37 63.38 48.97Q63.12 49.57 62.60 49.97Q62.08 50.37 61.33 50.43L61.33 50.43Q61.70 50.55 62.05 50.90Q62.39 51.24 62.61 51.58L62.61 51.58Q62.63 51.59 62.79 51.83Q62.95 52.08 63.19 52.43Q63.43 52.78 63.68 53.13Q63.94 53.48 64.14 53.72L64.14 53.72Q64.45 54.08 64.71 54.31Q64.97 54.54 65.26 54.66Q65.55 54.78 65.93 54.78L65.93 54.78L65.93 54.92L64.77 54.92Q64.04 54.92 63.47 54.77Q62.91 54.61 62.49 54.30Q62.07 54.00 61.76 53.53L61.76 53.53Q61.68 53.41 61.52 53.15Q61.37 52.89 61.19 52.57Q61.00 52.25 60.83 51.95Q60.65 51.64 60.53 51.41Q60.42 51.17 60.37 51.07L60.37 51.07Q60.15 50.66 59.88 50.41Q59.62 50.16 59.31 50.13L59.31 50.13L59.31 49.99Q59.34 49.99 59.49 50Q59.65 50.01 59.84 49.99L59.84 49.99Q60.22 49.98 60.60 49.85Q60.99 49.73 61.30 49.38Q61.61 49.04 61.75 48.42L61.75 48.42Q61.77 48.30 61.80 48.10Q61.83 47.91 61.82 47.70L61.82 47.70Q61.77 46.72 61.31 46.21Q60.85 45.71 60.14 45.68L60.14 45.68Q59.87 45.67 59.58 45.67Q59.28 45.68 59.06 45.68Q58.85 45.68 58.81 45.68L58.81 45.68Q58.81 45.67 58.77 45.53Q58.74 45.39 58.70 45.25Q58.67 45.12 58.67 45.12ZM57.14 45.12L58.85 45.12L58.85 54.92L57.14 54.92L57.14 45.12ZM57.14 53.90L57.18 53.90L57.18 54.92L56.06 54.92L56.06 54.78Q56.08 54.78 56.15 54.78Q56.23 54.78 56.24 54.78L56.24 54.78Q56.61 54.78 56.87 54.52Q57.13 54.26 57.14 53.90L57.14 53.90ZM57.18 45.12L57.18 46.14L57.14 46.14Q57.13 45.78 56.87 45.52Q56.61 45.26 56.24 45.26L56.24 45.26Q56.23 45.26 56.15 45.26Q56.08 45.26 56.06 45.26L56.06 45.26L56.06 45.12L57.18 45.12ZM58.81 54.92L58.81 53.90L58.85 53.90Q58.85 54.26 59.11 54.52Q59.38 54.78 59.74 54.78L59.74 54.78Q59.76 54.78 59.83 54.78Q59.91 54.78 59.91 54.78L59.91 54.78L59.91 54.92L58.81 54.92ZM67.00 45.12L68.70 45.12L68.70 54.92L67.00 54.92L67.00 45.12ZM67.00 53.90L67.04 53.90L67.04 54.92L65.92 54.92L65.92 54.78Q65.92 54.78 66.01 54.78Q66.10 54.78 66.10 54.78L66.10 54.78Q66.46 54.78 66.72 54.52Q66.98 54.26 67.00 53.90L67.00 53.90ZM67.04 45.12L67.04 46.14L67.00 46.14Q66.98 45.78 66.72 45.52Q66.46 45.26 66.10 45.26L66.10 45.26Q66.10 45.26 66.01 45.26Q65.92 45.26 65.92 45.26L65.92 45.26L65.92 45.12L67.04 45.12ZM68.66 54.92L68.66 53.90L68.70 53.90Q68.72 54.26 68.98 54.52Q69.24 54.78 69.60 54.78L69.60 54.78Q69.60 54.78 69.68 54.78Q69.77 54.78 69.78 54.78L69.78 54.78L69.78 54.92L68.66 54.92ZM68.70 46.14L68.66 46.14L68.66 45.12L69.78 45.12L69.78 45.26Q69.77 45.26 69.68 45.26Q69.60 45.26 69.60 45.26L69.60 45.26Q69.24 45.26 68.98 45.52Q68.72 45.78 68.70 46.14L68.70 46.14ZM80.09 50.83L80.20 50.83L80.23 53.17Q79.90 53.72 79.37 54.16Q78.84 54.60 78.08 54.86Q77.31 55.12 76.29 55.12L76.29 55.12Q74.67 55.10 73.44 54.49Q72.20 53.87 71.52 52.73Q70.85 51.59 70.85 50.01L70.85 50.01Q70.85 48.45 71.52 47.31Q72.19 46.17 73.42 45.55Q74.65 44.92 76.35 44.92L76.35 44.92Q77.44 44.92 78.31 45.17Q79.18 45.41 79.78 45.75L79.78 45.75L79.89 48.00L79.76 48.00Q79.41 46.67 78.52 46.07Q77.64 45.46 76.45 45.46L76.45 45.46Q75.30 45.46 74.46 46.01Q73.63 46.56 73.18 47.58Q72.72 48.59 72.72 49.98L72.72 49.98Q72.72 51.37 73.16 52.39Q73.60 53.42 74.41 53.99Q75.21 54.56 76.29 54.59L76.29 54.59Q77.34 54.59 78.12 54.23Q78.90 53.87 79.39 53.05Q79.89 52.22 80.09 50.83L80.09 50.83ZM84.85 50.22L86.15 49.11L89.91 54.01Q90.22 54.39 90.55 54.58Q90.88 54.77 91.31 54.78L91.31 54.78L91.31 54.92L90.35 54.92Q90.19 54.92 89.87 54.90Q89.55 54.88 89.15 54.79Q88.75 54.70 88.35 54.49Q87.94 54.28 87.63 53.88L87.63 53.88Q87.59 53.81 87.37 53.53Q87.16 53.24 86.83 52.83Q86.51 52.41 86.17 51.96Q85.83 51.51 85.52 51.11Q85.22 50.72 85.03 50.47Q84.85 50.22 84.85 50.22L84.85 50.22ZM88.70 45.22L89.83 45.22L85.63 50.16L84.85 50.22L88.70 45.22ZM90.75 45.12L90.81 45.12L90.81 45.25L90.75 45.25Q90.29 45.25 89.89 45.43Q89.49 45.61 89.21 45.93L89.21 45.93L88.16 45.91Q88.33 45.67 88.22 45.46Q88.11 45.25 87.83 45.25L87.83 45.25L87.69 45.25L87.69 45.12L90.75 45.12ZM82.69 45.12L84.40 45.12L84.40 54.92L82.69 54.92L82.69 45.12ZM82.69 53.90L82.73 53.90L82.73 54.92L81.61 54.92L81.61 54.78Q81.63 54.78 81.70 54.78Q81.78 54.78 81.79 54.78L81.79 54.78Q82.16 54.78 82.42 54.52Q82.68 54.26 82.69 53.90L82.69 53.90ZM82.73 45.12L82.73 46.14L82.69 46.14Q82.68 45.78 82.42 45.52Q82.16 45.26 81.79 45.26L81.79 45.26Q81.78 45.26 81.70 45.26Q81.63 45.26 81.61 45.26L81.61 45.26L81.61 45.12L82.73 45.12ZM84.36 54.92L84.36 53.90L84.40 53.90Q84.41 54.26 84.67 54.52Q84.93 54.78 85.29 54.78L85.29 54.78Q85.29 54.78 85.38 54.78Q85.46 54.78 85.48 54.78L85.48 54.78L85.48 54.92L84.36 54.92ZM84.40 46.14L84.36 46.14L84.36 45.12L85.48 45.12L85.48 45.26Q85.46 45.26 85.38 45.26Q85.29 45.26 85.29 45.26L85.29 45.26Q84.93 45.26 84.67 45.52Q84.41 45.78 84.40 46.14L84.40 46.14ZM94.83 44.92L94.83 44.92Q95.09 44.92 95.46 44.95Q95.82 44.98 96.19 45.03Q96.56 45.08 96.86 45.13Q97.15 45.18 97.26 45.23L97.26 45.23L97.15 47.01L97.01 47.01Q97.01 46.30 96.50 45.88Q95.99 45.46 95.18 45.46L95.18 45.46Q94.37 45.46 93.88 45.88Q93.40 46.30 93.39 46.90L93.39 46.90Q93.36 47.25 93.59 47.58Q93.82 47.91 94.21 48.19L94.21 48.19L96.91 50.19Q97.49 50.57 97.75 51.11Q98.02 51.64 97.99 52.32L97.99 52.32Q97.95 53.60 97.06 54.36Q96.17 55.12 94.65 55.12L94.65 55.12Q94.13 55.12 93.59 55.03Q93.05 54.94 92.60 54.75Q92.15 54.56 91.89 54.29L91.89 54.29Q91.80 54.01 91.82 53.61Q91.83 53.21 91.93 52.79Q92.03 52.36 92.17 52.06L92.17 52.06L92.29 52.06Q92.24 52.78 92.53 53.36Q92.83 53.94 93.39 54.27Q93.96 54.60 94.73 54.59L94.73 54.59Q95.60 54.56 96.12 54.09Q96.65 53.63 96.65 52.91L96.65 52.91Q96.65 52.48 96.42 52.14Q96.20 51.80 95.72 51.52L95.72 51.52L93.19 49.60Q92.55 49.18 92.27 48.59Q92.00 47.99 92.04 47.35L92.04 47.35Q92.08 46.67 92.42 46.12Q92.76 45.57 93.36 45.25Q93.97 44.92 94.83 44.92ZM95.81 45.06L97.28 45.06L97.26 45.36L95.81 45.36L95.81 45.06Z" fill="#4a4a4a"></path></svg>